<svg xmlns="http://www.w3.org/2000/svg" viewBox="0 0 1294.73 753.19">
  <polygon points="178.99 409.54 66.2 409.54 9.81 507.21 66.2 604.87 178.99 604.87 235.38 507.21 178.99 409.54" style="fill: none;stroke: #1e1e1c;stroke-miterlimit: 10;stroke-width: 17px"/>
  <polygon points="526.62 203.84 236.19 203.84 90.98 441.33 236.19 678.81 526.62 678.81 671.83 441.33 526.62 203.84" style="fill: none;stroke: #1e1e1c;stroke-miterlimit: 10;stroke-width: 17px"/>
  <polygon points="927.62 269.72 637.19 269.72 491.98 507.22 637.19 744.69 927.62 744.69 1072.83 507.22 927.62 269.72" style="fill: none;stroke: #1e1e1c;stroke-miterlimit: 10;stroke-width: 17px"/>
  <polygon points="1139.56 27.3 849.13 27.3 703.92 264.8 849.13 502.27 1139.56 502.27 1284.77 264.8 1139.56 27.3" style="fill: none;stroke: #1e1e1c;stroke-miterlimit: 10;stroke-width: 17px"/>
  <polygon points="818.04 119.91 675.79 119.91 604.67 236.22 675.79 352.53 818.04 352.53 889.16 236.22 818.04 119.91" style="fill: none;stroke: #1e1e1c;stroke-miterlimit: 10;stroke-width: 17px"/>
  <polygon points="644.11 142.17 501.87 142.17 430.75 258.49 501.87 374.8 644.11 374.8 715.23 258.49 644.11 142.17" style="fill: none;stroke: #1e1e1c;stroke-miterlimit: 10;stroke-width: 17px"/>
  <polygon points="335.96 98.56 193.72 98.56 122.59 214.88 193.72 331.19 335.96 331.19 407.08 214.88 335.96 98.56" style="fill: none;stroke: #1e1e1c;stroke-miterlimit: 10;stroke-width: 17px"/>
  <polygon points="484.53 385.95 342.29 385.95 271.16 502.27 342.29 618.58 484.53 618.58 555.65 502.27 484.53 385.95" style="fill: none;stroke: #1e1e1c;stroke-miterlimit: 10;stroke-width: 17px"/>
  <polygon points="764.74 430.81 709.67 430.81 682.14 475.84 709.67 520.87 764.74 520.87 792.28 475.84 764.74 430.81" style="fill: none;stroke: #00a3b9;stroke-miterlimit: 10;stroke-width: 17px"/>
  <polygon points="931.74 364.51 876.67 364.51 849.14 409.55 876.67 454.57 931.74 454.57 959.28 409.55 931.74 364.51" style="fill: none;stroke: #00a3b9;stroke-miterlimit: 10;stroke-width: 17px"/>
  <polygon points="991.98 105.05 936.92 105.05 909.38 150.08 936.92 195.11 991.98 195.11 1019.52 150.08 991.98 105.05" style="fill: none;stroke: #00a3b9;stroke-miterlimit: 10;stroke-width: 17px"/>
  <polygon points="476.64 8.5 421.57 8.5 394.04 53.53 421.57 98.56 476.64 98.56 504.17 53.53 476.64 8.5" style="fill: none;stroke: #00a3b9;stroke-miterlimit: 10;stroke-width: 17px"/>
  <polygon points="205.2 247.26 150.13 247.26 122.59 292.29 150.13 337.32 205.2 337.32 232.73 292.29 205.2 247.26" style="fill: none;stroke: #00a3b9;stroke-miterlimit: 10;stroke-width: 17px"/>
</svg>
