<svg xmlns="http://www.w3.org/2000/svg" width="149.832" height="86.5" viewBox="0 0 149.832 86.5">
  <defs>
    <style>
      .a {
        fill: #0a0b0b;
      }

      .b {
        fill: #181818;
      }
    </style>
  </defs>
  <rect class="a" width="149.832" height="86.5"/>
  <polygon class="b" points="91.403 28.558 107.893 0 103.274 0 89.095 24.558 60.737 24.558 46.559 0 41.94 0 58.428 28.558 91.403 28.558"/>
  <polygon class="b" points="58.428 57.941 41.94 86.5 46.559 86.5 60.737 61.941 89.095 61.941 103.274 86.5 107.893 86.5 91.403 57.941 58.428 57.941"/>
  <polygon class="b" points="149.832 67.809 135.653 67.809 121.476 43.25 135.653 18.692 149.832 18.692 149.832 14.692 133.345 14.692 116.857 43.25 133.345 71.809 149.832 71.809 149.832 67.809"/>
  <polygon class="b" points="0 14.692 0 18.692 14.178 18.692 28.357 43.25 14.178 67.809 0 67.809 0 71.809 15.333 71.809 16.488 71.809 32.976 43.25 16.488 14.692 0 14.692"/>
</svg>
