<svg id="Main" xmlns="http://www.w3.org/2000/svg" width="337.47" height="403.61" viewBox="0 0 337.47 403.61">
  <defs>
    <style>
      .cls-1 {
        fill: #00a3b9;
      }

      .cls-2 {
        fill: #181818;
      }
    </style>
  </defs>
  <title>games</title>
  <g id="Controller">
    <path class="cls-1" d="M165.52,139.12c-7.2-1.48-27.35-3.85-44.36,10.44l-.34-3.88s15.26-13.87,42-12A42.69,42.69,0,0,1,165.52,139.12Z" transform="translate(-49.82 -29.77)"/>
    <path class="cls-1" d="M329.21,145.68l-.34,3.88c-17-14.3-37.17-11.92-44.36-10.44a42,42,0,0,1,2.75-5.4C314,131.81,329.21,145.68,329.21,145.68Z" transform="translate(-49.82 -29.77)"/>
    <path class="cls-1" d="M228.56,185.33a3.55,3.55,0,1,1-3.54-3.55A3.55,3.55,0,0,1,228.56,185.33Z" transform="translate(-49.82 -29.77)"/>
    <path class="cls-1" d="M150.68,182.07a14.62,14.62,0,1,0,14.61,14.61A14.63,14.63,0,0,0,150.68,182.07Zm0,0a14.62,14.62,0,1,0,14.61,14.61A14.63,14.63,0,0,0,150.68,182.07Zm0,0a14.62,14.62,0,1,0,14.61,14.61A14.63,14.63,0,0,0,150.68,182.07Zm0,0a14.62,14.62,0,1,0,14.61,14.61A14.63,14.63,0,0,0,150.68,182.07Zm0,0a14.62,14.62,0,1,0,14.61,14.61A14.63,14.63,0,0,0,150.68,182.07Zm0,0a14.62,14.62,0,1,0,14.61,14.61A14.63,14.63,0,0,0,150.68,182.07Zm0-6.69A21.31,21.31,0,1,0,172,196.68,21.33,21.33,0,0,0,150.68,175.38Zm0,36.92a15.62,15.62,0,1,1,15.61-15.62A15.63,15.63,0,0,1,150.68,212.3Zm0-30.23a14.62,14.62,0,1,0,14.61,14.61A14.63,14.63,0,0,0,150.68,182.07Zm0,0a14.62,14.62,0,1,0,14.61,14.61A14.63,14.63,0,0,0,150.68,182.07Zm0,0a14.62,14.62,0,1,0,14.61,14.61A14.63,14.63,0,0,0,150.68,182.07Zm0,0a14.62,14.62,0,1,0,14.61,14.61A14.63,14.63,0,0,0,150.68,182.07Zm0,0a14.62,14.62,0,1,0,14.61,14.61A14.63,14.63,0,0,0,150.68,182.07Zm0,0a14.62,14.62,0,1,0,14.61,14.61A14.63,14.63,0,0,0,150.68,182.07Zm0,0a14.62,14.62,0,1,0,14.61,14.61A14.63,14.63,0,0,0,150.68,182.07Zm0,0a14.62,14.62,0,1,0,14.61,14.61A14.63,14.63,0,0,0,150.68,182.07Zm0,0a14.62,14.62,0,1,0,14.61,14.61A14.63,14.63,0,0,0,150.68,182.07Zm0,0a14.62,14.62,0,1,0,14.61,14.61A14.63,14.63,0,0,0,150.68,182.07Zm0,0a14.62,14.62,0,1,0,14.61,14.61A14.63,14.63,0,0,0,150.68,182.07Zm0,0a14.62,14.62,0,1,0,14.61,14.61A14.63,14.63,0,0,0,150.68,182.07Zm0,0a14.62,14.62,0,1,0,14.61,14.61A14.63,14.63,0,0,0,150.68,182.07Zm0-6.69A21.31,21.31,0,1,0,172,196.68,21.33,21.33,0,0,0,150.68,175.38Zm0,36.92a15.62,15.62,0,1,1,15.61-15.62A15.63,15.63,0,0,1,150.68,212.3Zm0-30.23a14.62,14.62,0,1,0,14.61,14.61A14.63,14.63,0,0,0,150.68,182.07Zm0,0a14.62,14.62,0,1,0,14.61,14.61A14.63,14.63,0,0,0,150.68,182.07Zm0,0a14.62,14.62,0,1,0,14.61,14.61A14.63,14.63,0,0,0,150.68,182.07Zm0,0a14.62,14.62,0,1,0,14.61,14.61A14.63,14.63,0,0,0,150.68,182.07Zm0,0a14.62,14.62,0,1,0,14.61,14.61A14.63,14.63,0,0,0,150.68,182.07Zm0,0a14.62,14.62,0,1,0,14.61,14.61A14.63,14.63,0,0,0,150.68,182.07Zm0,0a14.62,14.62,0,1,0,14.61,14.61A14.63,14.63,0,0,0,150.68,182.07Zm0,0a14.62,14.62,0,1,0,14.61,14.61A14.63,14.63,0,0,0,150.68,182.07Zm0,0a14.62,14.62,0,1,0,14.61,14.61A14.63,14.63,0,0,0,150.68,182.07Zm0,0a14.62,14.62,0,1,0,14.61,14.61A14.63,14.63,0,0,0,150.68,182.07Zm0,0a14.62,14.62,0,1,0,14.61,14.61A14.63,14.63,0,0,0,150.68,182.07Zm0,0a14.62,14.62,0,1,0,14.61,14.61A14.63,14.63,0,0,0,150.68,182.07Zm0,0a14.62,14.62,0,1,0,14.61,14.61A14.63,14.63,0,0,0,150.68,182.07Zm0-6.69A21.31,21.31,0,1,0,172,196.68,21.33,21.33,0,0,0,150.68,175.38Zm0,36.92a15.62,15.62,0,1,1,15.61-15.62A15.63,15.63,0,0,1,150.68,212.3Zm0-30.23a14.62,14.62,0,1,0,14.61,14.61A14.63,14.63,0,0,0,150.68,182.07Zm0,0a14.62,14.62,0,1,0,14.61,14.61A14.63,14.63,0,0,0,150.68,182.07Zm0,0a14.62,14.62,0,1,0,14.61,14.61A14.63,14.63,0,0,0,150.68,182.07Zm0,0a14.62,14.62,0,1,0,14.61,14.61A14.63,14.63,0,0,0,150.68,182.07Zm0,0a14.62,14.62,0,1,0,14.61,14.61A14.63,14.63,0,0,0,150.68,182.07Zm110.19,38.61a15.24,15.24,0,1,0,15.24,15.24A15.26,15.26,0,0,0,260.87,220.68Zm0,0a15.24,15.24,0,1,0,15.24,15.24A15.26,15.26,0,0,0,260.87,220.68ZM150.68,182.07a14.62,14.62,0,1,0,14.61,14.61A14.63,14.63,0,0,0,150.68,182.07Zm0,0a14.62,14.62,0,1,0,14.61,14.61A14.63,14.63,0,0,0,150.68,182.07Zm0,0a14.62,14.62,0,1,0,14.61,14.61A14.63,14.63,0,0,0,150.68,182.07Zm0,0a14.62,14.62,0,1,0,14.61,14.61A14.63,14.63,0,0,0,150.68,182.07Zm0-6.69A21.31,21.31,0,1,0,172,196.68,21.33,21.33,0,0,0,150.68,175.38Zm0,36.92a15.62,15.62,0,1,1,15.61-15.62A15.63,15.63,0,0,1,150.68,212.3Zm0-30.23a14.62,14.62,0,1,0,14.61,14.61A14.63,14.63,0,0,0,150.68,182.07Zm0,0a14.62,14.62,0,1,0,14.61,14.61A14.63,14.63,0,0,0,150.68,182.07Zm0,0a14.62,14.62,0,1,0,14.61,14.61A14.63,14.63,0,0,0,150.68,182.07Zm0,0a14.62,14.62,0,1,0,14.61,14.61A14.63,14.63,0,0,0,150.68,182.07Zm0,0a14.62,14.62,0,1,0,14.61,14.61A14.63,14.63,0,0,0,150.68,182.07Zm0,0a14.62,14.62,0,1,0,14.61,14.61A14.63,14.63,0,0,0,150.68,182.07Zm0,0a14.62,14.62,0,1,0,14.61,14.61A14.63,14.63,0,0,0,150.68,182.07Zm0,0a14.62,14.62,0,1,0,14.61,14.61A14.63,14.63,0,0,0,150.68,182.07Zm0,0a14.62,14.62,0,1,0,14.61,14.61A14.63,14.63,0,0,0,150.68,182.07Zm0-6.69A21.31,21.31,0,1,0,172,196.68,21.33,21.33,0,0,0,150.68,175.38Zm0,36.92a15.62,15.62,0,1,1,15.61-15.62A15.63,15.63,0,0,1,150.68,212.3Zm0-30.23a14.62,14.62,0,1,0,14.61,14.61A14.63,14.63,0,0,0,150.68,182.07Zm0,0a14.62,14.62,0,1,0,14.61,14.61A14.63,14.63,0,0,0,150.68,182.07Zm0,0a14.62,14.62,0,1,0,14.61,14.61A14.63,14.63,0,0,0,150.68,182.07Zm110.19,38.61a15.24,15.24,0,1,0,15.24,15.24A15.26,15.26,0,0,0,260.87,220.68Zm0,0a15.24,15.24,0,1,0,15.24,15.24A15.26,15.26,0,0,0,260.87,220.68Zm0,0a15.24,15.24,0,1,0,15.24,15.24A15.26,15.26,0,0,0,260.87,220.68Zm0,0a15.24,15.24,0,1,0,15.24,15.24A15.26,15.26,0,0,0,260.87,220.68Zm0-7a22.23,22.23,0,1,0,22.24,22.23A22.26,22.26,0,0,0,260.87,213.69Zm0,38.47a16.24,16.24,0,1,1,16.24-16.24A16.26,16.26,0,0,1,260.87,252.16Zm0-31.48a15.24,15.24,0,1,0,15.24,15.24A15.26,15.26,0,0,0,260.87,220.68Zm0,0a15.24,15.24,0,1,0,15.24,15.24A15.26,15.26,0,0,0,260.87,220.68Zm0,0a15.24,15.24,0,1,0,15.24,15.24A15.26,15.26,0,0,0,260.87,220.68Zm42.91-19.33a6.52,6.52,0,1,0,6.52,6.52A6.52,6.52,0,0,0,303.78,201.35Zm0,0a6.52,6.52,0,1,0,6.52,6.52A6.52,6.52,0,0,0,303.78,201.35Zm-42.91,19.33a15.24,15.24,0,1,0,15.24,15.24A15.26,15.26,0,0,0,260.87,220.68Zm0,0a15.24,15.24,0,1,0,15.24,15.24A15.26,15.26,0,0,0,260.87,220.68Zm0-7a22.23,22.23,0,1,0,22.24,22.23A22.26,22.26,0,0,0,260.87,213.69Zm0,38.47a16.24,16.24,0,1,1,16.24-16.24A16.26,16.26,0,0,1,260.87,252.16Zm0-31.48a15.24,15.24,0,1,0,15.24,15.24A15.26,15.26,0,0,0,260.87,220.68Zm0,0a15.24,15.24,0,1,0,15.24,15.24A15.26,15.26,0,0,0,260.87,220.68Zm0,0a15.24,15.24,0,1,0,15.24,15.24A15.26,15.26,0,0,0,260.87,220.68ZM150.68,182.07a14.62,14.62,0,1,0,14.61,14.61A14.63,14.63,0,0,0,150.68,182.07Zm0,0a14.62,14.62,0,1,0,14.61,14.61A14.63,14.63,0,0,0,150.68,182.07Zm0-6.69A21.31,21.31,0,1,0,172,196.68,21.33,21.33,0,0,0,150.68,175.38Zm0,36.92a15.62,15.62,0,1,1,15.61-15.62A15.63,15.63,0,0,1,150.68,212.3Zm0-30.23a14.62,14.62,0,1,0,14.61,14.61A14.63,14.63,0,0,0,150.68,182.07Zm0,0a14.62,14.62,0,1,0,14.61,14.61A14.63,14.63,0,0,0,150.68,182.07Zm0,0a14.62,14.62,0,1,0,14.61,14.61A14.63,14.63,0,0,0,150.68,182.07Zm0,0a14.62,14.62,0,1,0,14.61,14.61A14.63,14.63,0,0,0,150.68,182.07Zm0,0a14.62,14.62,0,1,0,14.61,14.61A14.63,14.63,0,0,0,150.68,182.07Zm0-6.69A21.31,21.31,0,1,0,172,196.68,21.33,21.33,0,0,0,150.68,175.38Zm0,36.92a15.62,15.62,0,1,1,15.61-15.62A15.63,15.63,0,0,1,150.68,212.3Zm0-30.23a14.62,14.62,0,1,0,14.61,14.61A14.63,14.63,0,0,0,150.68,182.07Zm110.19,38.61a15.24,15.24,0,1,0,15.24,15.24A15.26,15.26,0,0,0,260.87,220.68Zm0,0a15.24,15.24,0,1,0,15.24,15.24A15.26,15.26,0,0,0,260.87,220.68Zm0-7a22.23,22.23,0,1,0,22.24,22.23A22.26,22.26,0,0,0,260.87,213.69Zm0,38.47a16.24,16.24,0,1,1,16.24-16.24A16.26,16.26,0,0,1,260.87,252.16Zm0-31.48a15.24,15.24,0,1,0,15.24,15.24A15.26,15.26,0,0,0,260.87,220.68Zm27.89-34.35a6.51,6.51,0,1,0,6.51,6.51A6.52,6.52,0,0,0,288.76,186.33Zm15,15a6.52,6.52,0,1,0,6.52,6.52A6.52,6.52,0,0,0,303.78,201.35Zm15-15a6.51,6.51,0,1,0,6.51,6.51A6.52,6.52,0,0,0,318.81,186.33Zm0,0a6.51,6.51,0,1,0,6.51,6.51A6.52,6.52,0,0,0,318.81,186.33Zm-15,15a6.52,6.52,0,1,0,6.52,6.52A6.52,6.52,0,0,0,303.78,201.35Zm-15-15a6.51,6.51,0,1,0,6.51,6.51A6.52,6.52,0,0,0,288.76,186.33Zm-27.89,27.36a22.23,22.23,0,1,0,22.24,22.23A22.26,22.26,0,0,0,260.87,213.69Zm0,38.47a16.24,16.24,0,1,1,16.24-16.24A16.26,16.26,0,0,1,260.87,252.16Zm0-31.48a15.24,15.24,0,1,0,15.24,15.24A15.26,15.26,0,0,0,260.87,220.68Zm-110.19-45.3A21.31,21.31,0,1,0,172,196.68,21.33,21.33,0,0,0,150.68,175.38Zm0,36.92a15.62,15.62,0,1,1,15.61-15.62A15.63,15.63,0,0,1,150.68,212.3Zm0-30.23a14.62,14.62,0,1,0,14.61,14.61A14.63,14.63,0,0,0,150.68,182.07Zm181-27.83c-20.81-21.5-48.32-13.18-48.09-13.41-16.64,12-22,14.56-33.28,16.18-11.79,0-25.31.93-25.31.93S211.49,157,199.7,157c-11.32-1.62-16.64-4.16-33.28-16.18.23.23-27.28-8.09-48.08,13.41C101.92,164.18,52.46,307,95.91,338.47c18.33,15.52,58.72-41.61,73.74-54.09-.92-1.15,27.63-9.63,55.37-9.25,27.73-.38,56.28,8.1,55.36,9.25,15,12.48,55.42,69.61,73.74,54.09C397.58,307,348.11,164.18,331.7,154.24ZM150.68,220A23.31,23.31,0,1,1,174,196.68,23.33,23.33,0,0,1,150.68,220Zm153.1-50.69a8.52,8.52,0,1,1-8.51,8.52A8.53,8.53,0,0,1,303.78,169.3ZM225,189.87a4.55,4.55,0,1,1,4.54-4.54A4.55,4.55,0,0,1,225,189.87Zm35.85,70.28a24.23,24.23,0,1,1,24.24-24.23A24.26,24.26,0,0,1,260.87,260.15Zm27.89-58.8a8.51,8.51,0,1,1,8.51-8.51A8.52,8.52,0,0,1,288.76,201.35Zm15,15a8.52,8.52,0,1,1,8.52-8.51A8.52,8.52,0,0,1,303.78,216.38Zm15-15a8.51,8.51,0,1,1,8.51-8.51A8.52,8.52,0,0,1,318.81,201.35Zm0-15a6.51,6.51,0,1,0,6.51,6.51A6.52,6.52,0,0,0,318.81,186.33Zm-15-2a6.52,6.52,0,1,0-6.51-6.51A6.53,6.53,0,0,0,303.78,184.33Zm0,17a6.52,6.52,0,1,0,6.52,6.52A6.52,6.52,0,0,0,303.78,201.35Zm-15-15a6.51,6.51,0,1,0,6.51,6.51A6.52,6.52,0,0,0,288.76,186.33Zm-27.89,27.36a22.23,22.23,0,1,0,22.24,22.23A22.26,22.26,0,0,0,260.87,213.69Zm0,38.47a16.24,16.24,0,1,1,16.24-16.24A16.26,16.26,0,0,1,260.87,252.16Zm0-31.48a15.24,15.24,0,1,0,15.24,15.24A15.26,15.26,0,0,0,260.87,220.68Zm-110.19-45.3A21.31,21.31,0,1,0,172,196.68,21.33,21.33,0,0,0,150.68,175.38Zm0,36.92a15.62,15.62,0,1,1,15.61-15.62A15.63,15.63,0,0,1,150.68,212.3Zm0-30.23a14.62,14.62,0,1,0,14.61,14.61A14.63,14.63,0,0,0,150.68,182.07Zm0,0a14.62,14.62,0,1,0,14.61,14.61A14.63,14.63,0,0,0,150.68,182.07Zm0,0a14.62,14.62,0,1,0,14.61,14.61A14.63,14.63,0,0,0,150.68,182.07Zm0-6.69A21.31,21.31,0,1,0,172,196.68,21.33,21.33,0,0,0,150.68,175.38Zm0,36.92a15.62,15.62,0,1,1,15.61-15.62A15.63,15.63,0,0,1,150.68,212.3Zm0-30.23a14.62,14.62,0,1,0,14.61,14.61A14.63,14.63,0,0,0,150.68,182.07Zm110.19,38.61a15.24,15.24,0,1,0,15.24,15.24A15.26,15.26,0,0,0,260.87,220.68Zm0,0a15.24,15.24,0,1,0,15.24,15.24A15.26,15.26,0,0,0,260.87,220.68Zm0-7a22.23,22.23,0,1,0,22.24,22.23A22.26,22.26,0,0,0,260.87,213.69Zm0,38.47a16.24,16.24,0,1,1,16.24-16.24A16.26,16.26,0,0,1,260.87,252.16Zm0-31.48a15.24,15.24,0,1,0,15.24,15.24A15.26,15.26,0,0,0,260.87,220.68Zm27.89-34.35a6.51,6.51,0,1,0,6.51,6.51A6.52,6.52,0,0,0,288.76,186.33Zm15,15a6.52,6.52,0,1,0,6.52,6.52A6.52,6.52,0,0,0,303.78,201.35Zm0,0a6.52,6.52,0,1,0,6.52,6.52A6.52,6.52,0,0,0,303.78,201.35Zm-15-15a6.51,6.51,0,1,0,6.51,6.51A6.52,6.52,0,0,0,288.76,186.33Zm-27.89,34.35a15.24,15.24,0,1,0,15.24,15.24A15.26,15.26,0,0,0,260.87,220.68Zm0,0a15.24,15.24,0,1,0,15.24,15.24A15.26,15.26,0,0,0,260.87,220.68Zm0-7a22.23,22.23,0,1,0,22.24,22.23A22.26,22.26,0,0,0,260.87,213.69Zm0,38.47a16.24,16.24,0,1,1,16.24-16.24A16.26,16.26,0,0,1,260.87,252.16Zm0-31.48a15.24,15.24,0,1,0,15.24,15.24A15.26,15.26,0,0,0,260.87,220.68Zm0,0a15.24,15.24,0,1,0,15.24,15.24A15.26,15.26,0,0,0,260.87,220.68Zm0,0a15.24,15.24,0,1,0,15.24,15.24A15.26,15.26,0,0,0,260.87,220.68ZM150.68,182.07a14.62,14.62,0,1,0,14.61,14.61A14.63,14.63,0,0,0,150.68,182.07Zm0,0a14.62,14.62,0,1,0,14.61,14.61A14.63,14.63,0,0,0,150.68,182.07Zm0-6.69A21.31,21.31,0,1,0,172,196.68,21.33,21.33,0,0,0,150.68,175.38Zm0,36.92a15.62,15.62,0,1,1,15.61-15.62A15.63,15.63,0,0,1,150.68,212.3Zm0-30.23a14.62,14.62,0,1,0,14.61,14.61A14.63,14.63,0,0,0,150.68,182.07Zm0,0a14.62,14.62,0,1,0,14.61,14.61A14.63,14.63,0,0,0,150.68,182.07Zm0,0a14.62,14.62,0,1,0,14.61,14.61A14.63,14.63,0,0,0,150.68,182.07Zm0,0a14.62,14.62,0,1,0,14.61,14.61A14.63,14.63,0,0,0,150.68,182.07Zm0,0a14.62,14.62,0,1,0,14.61,14.61A14.63,14.63,0,0,0,150.68,182.07Zm0,0a14.62,14.62,0,1,0,14.61,14.61A14.63,14.63,0,0,0,150.68,182.07Zm0,0a14.62,14.62,0,1,0,14.61,14.61A14.63,14.63,0,0,0,150.68,182.07Zm0-6.69A21.31,21.31,0,1,0,172,196.68,21.33,21.33,0,0,0,150.68,175.38Zm0,36.92a15.62,15.62,0,1,1,15.61-15.62A15.63,15.63,0,0,1,150.68,212.3Zm0-30.23a14.62,14.62,0,1,0,14.61,14.61A14.63,14.63,0,0,0,150.68,182.07Zm0,0a14.62,14.62,0,1,0,14.61,14.61A14.63,14.63,0,0,0,150.68,182.07Zm0,0a14.62,14.62,0,1,0,14.61,14.61A14.63,14.63,0,0,0,150.68,182.07Zm110.19,38.61a15.24,15.24,0,1,0,15.24,15.24A15.26,15.26,0,0,0,260.87,220.68Zm0,0a15.24,15.24,0,1,0,15.24,15.24A15.26,15.26,0,0,0,260.87,220.68Zm0,0a15.24,15.24,0,1,0,15.24,15.24A15.26,15.26,0,0,0,260.87,220.68Zm0,0a15.24,15.24,0,1,0,15.24,15.24A15.26,15.26,0,0,0,260.87,220.68Zm0-7a22.23,22.23,0,1,0,22.24,22.23A22.26,22.26,0,0,0,260.87,213.69Zm0,38.47a16.24,16.24,0,1,1,16.24-16.24A16.26,16.26,0,0,1,260.87,252.16Zm0-31.48a15.24,15.24,0,1,0,15.24,15.24A15.26,15.26,0,0,0,260.87,220.68Zm0,0a15.24,15.24,0,1,0,15.24,15.24A15.26,15.26,0,0,0,260.87,220.68Zm0,0a15.24,15.24,0,1,0,15.24,15.24A15.26,15.26,0,0,0,260.87,220.68Zm0,0a15.24,15.24,0,1,0,15.24,15.24A15.26,15.26,0,0,0,260.87,220.68Zm0,0a15.24,15.24,0,1,0,15.24,15.24A15.26,15.26,0,0,0,260.87,220.68Zm0,0a15.24,15.24,0,1,0,15.24,15.24A15.26,15.26,0,0,0,260.87,220.68Zm0,0a15.24,15.24,0,1,0,15.24,15.24A15.26,15.26,0,0,0,260.87,220.68Zm0-7a22.23,22.23,0,1,0,22.24,22.23A22.26,22.26,0,0,0,260.87,213.69Zm0,38.47a16.24,16.24,0,1,1,16.24-16.24A16.26,16.26,0,0,1,260.87,252.16Zm0-31.48a15.24,15.24,0,1,0,15.24,15.24A15.26,15.26,0,0,0,260.87,220.68Zm0,0a15.24,15.24,0,1,0,15.24,15.24A15.26,15.26,0,0,0,260.87,220.68Zm0,0a15.24,15.24,0,1,0,15.24,15.24A15.26,15.26,0,0,0,260.87,220.68Zm0,0a15.24,15.24,0,1,0,15.24,15.24A15.26,15.26,0,0,0,260.87,220.68Zm0,0a15.24,15.24,0,1,0,15.24,15.24A15.26,15.26,0,0,0,260.87,220.68ZM150.68,182.07a14.62,14.62,0,1,0,14.61,14.61A14.63,14.63,0,0,0,150.68,182.07Zm0,0a14.62,14.62,0,1,0,14.61,14.61A14.63,14.63,0,0,0,150.68,182.07Zm0,0a14.62,14.62,0,1,0,14.61,14.61A14.63,14.63,0,0,0,150.68,182.07Zm0,0a14.62,14.62,0,1,0,14.61,14.61A14.63,14.63,0,0,0,150.68,182.07Zm0-6.69A21.31,21.31,0,1,0,172,196.68,21.33,21.33,0,0,0,150.68,175.38Zm0,36.92a15.62,15.62,0,1,1,15.61-15.62A15.63,15.63,0,0,1,150.68,212.3Zm0-30.23a14.62,14.62,0,1,0,14.61,14.61A14.63,14.63,0,0,0,150.68,182.07Zm0,0a14.62,14.62,0,1,0,14.61,14.61A14.63,14.63,0,0,0,150.68,182.07Zm0,0a14.62,14.62,0,1,0,14.61,14.61A14.63,14.63,0,0,0,150.68,182.07Zm0,0a14.62,14.62,0,1,0,14.61,14.61A14.63,14.63,0,0,0,150.68,182.07Zm0,0a14.62,14.62,0,1,0,14.61,14.61A14.63,14.63,0,0,0,150.68,182.07Zm0,0a14.62,14.62,0,1,0,14.61,14.61A14.63,14.63,0,0,0,150.68,182.07Zm0,0a14.62,14.62,0,1,0,14.61,14.61A14.63,14.63,0,0,0,150.68,182.07Zm0,0a14.62,14.62,0,1,0,14.61,14.61A14.63,14.63,0,0,0,150.68,182.07Zm0,0a14.62,14.62,0,1,0,14.61,14.61A14.63,14.63,0,0,0,150.68,182.07Zm0,0a14.62,14.62,0,1,0,14.61,14.61A14.63,14.63,0,0,0,150.68,182.07Zm0,0a14.62,14.62,0,1,0,14.61,14.61A14.63,14.63,0,0,0,150.68,182.07Zm0-6.69A21.31,21.31,0,1,0,172,196.68,21.33,21.33,0,0,0,150.68,175.38Zm0,36.92a15.62,15.62,0,1,1,15.61-15.62A15.63,15.63,0,0,1,150.68,212.3Zm0-30.23a14.62,14.62,0,1,0,14.61,14.61A14.63,14.63,0,0,0,150.68,182.07Zm0,0a14.62,14.62,0,1,0,14.61,14.61A14.63,14.63,0,0,0,150.68,182.07Zm0,0a14.62,14.62,0,1,0,14.61,14.61A14.63,14.63,0,0,0,150.68,182.07Zm0,0a14.62,14.62,0,1,0,14.61,14.61A14.63,14.63,0,0,0,150.68,182.07Zm0,0a14.62,14.62,0,1,0,14.61,14.61A14.63,14.63,0,0,0,150.68,182.07Zm0,0a14.62,14.62,0,1,0,14.61,14.61A14.63,14.63,0,0,0,150.68,182.07Zm0,0a14.62,14.62,0,1,0,14.61,14.61A14.63,14.63,0,0,0,150.68,182.07Zm0,0a14.62,14.62,0,1,0,14.61,14.61A14.63,14.63,0,0,0,150.68,182.07Zm0,0a14.62,14.62,0,1,0,14.61,14.61A14.63,14.63,0,0,0,150.68,182.07Zm0,0a14.62,14.62,0,1,0,14.61,14.61A14.63,14.63,0,0,0,150.68,182.07Zm0,0a14.62,14.62,0,1,0,14.61,14.61A14.63,14.63,0,0,0,150.68,182.07Zm0-6.69A21.31,21.31,0,1,0,172,196.68,21.33,21.33,0,0,0,150.68,175.38Zm0,36.92a15.62,15.62,0,1,1,15.61-15.62A15.63,15.63,0,0,1,150.68,212.3Zm0-30.23a14.62,14.62,0,1,0,14.61,14.61A14.63,14.63,0,0,0,150.68,182.07Zm0,0a14.62,14.62,0,1,0,14.61,14.61A14.63,14.63,0,0,0,150.68,182.07Zm0,0a14.62,14.62,0,1,0,14.61,14.61A14.63,14.63,0,0,0,150.68,182.07Zm0,0a14.62,14.62,0,1,0,14.61,14.61A14.63,14.63,0,0,0,150.68,182.07Zm0,0a14.62,14.62,0,1,0,14.61,14.61A14.63,14.63,0,0,0,150.68,182.07Zm0,0a14.62,14.62,0,1,0,14.61,14.61A14.63,14.63,0,0,0,150.68,182.07Zm0,0a14.62,14.62,0,1,0,14.61,14.61A14.63,14.63,0,0,0,150.68,182.07Z" transform="translate(-49.82 -29.77)"/>
  </g>
  <g id="Code">
    <g>
      <line class="cls-2" x1="1.5" y1="1.5" x2="72.31" y2="1.5"/>
      <path class="cls-1" d="M122.13,32.77H51.32a1.5,1.5,0,1,1,0-3h70.81a1.5,1.5,0,0,1,0,3Z" transform="translate(-49.82 -29.77)"/>
    </g>
    <g>
      <line class="cls-2" x1="8.88" y1="7.3" x2="87.87" y2="7.3"/>
      <path class="cls-1" d="M137.69,38.58h-79a1.5,1.5,0,0,1,0-3h79a1.5,1.5,0,0,1,0,3Z" transform="translate(-49.82 -29.77)"/>
    </g>
    <g>
      <line class="cls-2" x1="8.88" y1="13.1" x2="79.31" y2="13.1"/>
      <path class="cls-1" d="M129.13,44.38H58.7a1.5,1.5,0,0,1,0-3h70.43a1.5,1.5,0,0,1,0,3Z" transform="translate(-49.82 -29.77)"/>
    </g>
    <g>
      <line class="cls-2" x1="8.88" y1="18.91" x2="86.79" y2="18.91"/>
      <path class="cls-1" d="M136.61,50.18H58.7a1.5,1.5,0,0,1,0-3h77.91a1.5,1.5,0,0,1,0,3Z" transform="translate(-49.82 -29.77)"/>
    </g>
    <g>
      <line class="cls-2" x1="1.5" y1="24.71" x2="70.86" y2="24.71"/>
      <path class="cls-1" d="M120.68,56H51.32a1.5,1.5,0,0,1,0-3h69.36a1.5,1.5,0,0,1,0,3Z" transform="translate(-49.82 -29.77)"/>
    </g>
    <g>
      <line class="cls-2" x1="1.5" y1="30.51" x2="90.77" y2="30.51"/>
      <path class="cls-1" d="M140.59,61.79H51.32a1.5,1.5,0,0,1,0-3h89.27a1.5,1.5,0,0,1,0,3Z" transform="translate(-49.82 -29.77)"/>
    </g>
    <g>
      <line class="cls-2" x1="8.88" y1="36.31" x2="87.87" y2="36.31"/>
      <path class="cls-1" d="M137.69,67.59h-79a1.5,1.5,0,0,1,0-3h79a1.5,1.5,0,0,1,0,3Z" transform="translate(-49.82 -29.77)"/>
    </g>
    <g>
      <line class="cls-2" x1="8.88" y1="42.12" x2="86.79" y2="42.12"/>
      <path class="cls-1" d="M136.61,73.39H58.7a1.5,1.5,0,0,1,0-3h77.91a1.5,1.5,0,0,1,0,3Z" transform="translate(-49.82 -29.77)"/>
    </g>
    <g>
      <line class="cls-2" x1="1.5" y1="47.92" x2="77.72" y2="47.92"/>
      <path class="cls-1" d="M127.54,79.19H51.32a1.5,1.5,0,1,1,0-3h76.22a1.5,1.5,0,0,1,0,3Z" transform="translate(-49.82 -29.77)"/>
    </g>
    <g>
      <line class="cls-2" x1="8.88" y1="53.72" x2="85.37" y2="53.72"/>
      <path class="cls-1" d="M135.19,85H58.7a1.5,1.5,0,0,1,0-3h76.49a1.5,1.5,0,0,1,0,3Z" transform="translate(-49.82 -29.77)"/>
    </g>
    <g>
      <line class="cls-2" x1="1.5" y1="59.52" x2="82.73" y2="59.52"/>
      <path class="cls-1" d="M132.55,90.8H51.32a1.5,1.5,0,0,1,0-3h81.23a1.5,1.5,0,0,1,0,3Z" transform="translate(-49.82 -29.77)"/>
    </g>
  </g>
  <g id="CubeUnwrap">
    <rect class="cls-1" x="302.85" y="25.9" width="16.02" height="16.02"/>
    <rect class="cls-1" x="371.26" y="55.67" width="16.02" height="16.02" transform="translate(393.14 -345.37) rotate(90)"/>
    <rect class="cls-1" x="334.08" y="55.67" width="16.02" height="16.02" transform="translate(355.95 -308.18) rotate(90)"/>
    <rect class="cls-1" x="371.26" y="37.08" width="16.02" height="16.02" transform="translate(374.54 -363.96) rotate(90)"/>
    <rect class="cls-1" x="302.85" y="7.3" width="16.02" height="16.02"/>
    <rect class="cls-1" x="302.85" y="44.49" width="16.02" height="16.02"/>
  </g>
  <g id="Scence">
    <path class="cls-1" d="M261.68,396.19,274,383.87a2.74,2.74,0,0,1,3.86,0l11.38,11.38a2.73,2.73,0,0,0,3.85,0l18.69-18.7a2.74,2.74,0,0,1,3.86,0l13.25,13.26a2.74,2.74,0,0,0,3.86,0l5.34-5.34a2.72,2.72,0,0,1,3.86,0l11.9,11.89A2.73,2.73,0,0,1,351.9,401l-88.3-.17A2.73,2.73,0,0,1,261.68,396.19Z" transform="translate(-49.82 -29.77)"/>
    <path class="cls-1" d="M351.42,401.52H264.1a3.73,3.73,0,0,1-3.73-3.73V377a3.73,3.73,0,0,1,3.73-3.72h87.32a3.73,3.73,0,0,1,3.72,3.72v20.81A3.73,3.73,0,0,1,351.42,401.52ZM264.1,374.26a2.72,2.72,0,0,0-2.73,2.72v20.81a2.73,2.73,0,0,0,2.73,2.73h87.32a2.72,2.72,0,0,0,2.72-2.73V377a2.72,2.72,0,0,0-2.72-2.72Z" transform="translate(-49.82 -29.77)"/>
  </g>
  <g id="Material">
    <path class="cls-1" d="M120.07,433.39C102.37,433.39,88,419.29,88,402s14.41-31.42,32.11-31.42,32.11,14.1,32.11,31.42S137.78,433.39,120.07,433.39Zm0-59.84C104,373.55,91,386.3,91,402s13.06,28.42,29.11,28.42,29.11-12.75,29.11-28.42S136.12,373.55,120.07,373.55Z" transform="translate(-49.82 -29.77)"/>
    <ellipse class="cls-1" cx="56.92" cy="358.36" rx="4.9" ry="4.79"/>
  </g>
  <g id="Connectors">
    <path class="cls-1" d="M196.69,146.14a1.5,1.5,0,0,1-1.5-1.5V83.11L179.66,67.59H159.32a1.5,1.5,0,0,1,0-3h21a1.53,1.53,0,0,1,1.06.44l16.4,16.4a1.5,1.5,0,0,1,.44,1.06v62.15A1.5,1.5,0,0,1,196.69,146.14Z" transform="translate(-49.82 -29.77)"/>
    <path class="cls-1" d="M257.5,146.14a1.5,1.5,0,0,1-1.5-1.5V127a1.53,1.53,0,0,1,.43-1.07l9.83-9.82a1.5,1.5,0,0,1,1.06-.44h31.95l5.58-5.58V96a1.5,1.5,0,0,1,.44-1.06l12.46-12.46a1.5,1.5,0,0,1,1.06-.44h23.28a1.5,1.5,0,0,1,0,3H319.43L307.85,96.57v14.09a1.5,1.5,0,0,1-.44,1.06L301,118.18a1.5,1.5,0,0,1-1.06.44H267.94L259,127.57v17.07A1.5,1.5,0,0,1,257.5,146.14Z" transform="translate(-49.82 -29.77)"/>
    <path class="cls-1" d="M148.64,373.55a1.45,1.45,0,0,1-1.06-.44,1.49,1.49,0,0,1,0-2.12l18.47-18.48V298.18a1.5,1.5,0,0,1,3,0v55a1.47,1.47,0,0,1-.44,1.06L149.7,373.11A1.48,1.48,0,0,1,148.64,373.55Z" transform="translate(-49.82 -29.77)"/>
    <path class="cls-1" d="M264.15,366.53a1.48,1.48,0,0,1-1.06-.44l-12.46-12.46a1.5,1.5,0,0,1-.44-1.06V298.18a1.5,1.5,0,0,1,3,0V352l12,12a1.49,1.49,0,0,1,0,2.12A1.45,1.45,0,0,1,264.15,366.53Z" transform="translate(-49.82 -29.77)"/>
  </g>
</svg>
