<svg xmlns="http://www.w3.org/2000/svg" viewBox="0 0 421.05 378.92"><defs><style>.a,.b{fill:none;stroke:#05a3ba;stroke-miterlimit:10;}.a{stroke-width:3px;}.b{stroke-width:1.5px;}.c{fill:#05a3ba;}</style></defs><path class="a" d="M204.69,105.54,48.06,376.83c-20.13,34.88,5,78.48,45.31,78.48H406.63c40.27,0,65.44-43.6,45.31-78.48L295.31,105.54C275.17,70.67,224.83,70.67,204.69,105.54Z" transform="translate(-39.48 -77.89)"/><path class="b" d="M166.41,310.53h0C129.26,374.87,175.7,455.31,250,455.31h0c74.3,0,120.74-80.44,83.59-144.78h0C296.44,246.18,203.56,246.18,166.41,310.53Z" transform="translate(-39.48 -77.89)"/><path class="b" d="M389,397.71h0a29.57,29.57,0,0,0,25.61,44.36h0a29.57,29.57,0,0,0,25.61-44.36h0A29.58,29.58,0,0,0,389,397.71Z" transform="translate(-39.48 -77.89)"/><path class="b" d="M234.24,96.49h0A18.2,18.2,0,0,0,250,123.79h0a18.2,18.2,0,0,0,15.76-27.3h0A18.2,18.2,0,0,0,234.24,96.49Z" transform="translate(-39.48 -77.89)"/><path class="b" d="M60.28,411.24h0A18.2,18.2,0,0,0,76,438.54h0a18.2,18.2,0,0,0,15.76-27.3h0A18.2,18.2,0,0,0,60.28,411.24Z" transform="translate(-39.48 -77.89)"/><polygon class="c" points="222.78 83.17 210.52 266.36 198.27 83.17 222.78 83.17"/><circle class="c" cx="210.52" cy="256.47" r="16.46"/></svg>