<?xml version="1.0" encoding="utf-8"?>
<!-- Generator: Adobe Illustrator 25.0.1, SVG Export Plug-In . SVG Version: 6.00 Build 0)  -->
<svg version="1.1" id="Layer_1" xmlns="http://www.w3.org/2000/svg" xmlns:xlink="http://www.w3.org/1999/xlink" x="0px" y="0px"
	 viewBox="0 0 475.71 345.62" style="enable-background:new 0 0 475.71 345.62;" xml:space="preserve">
<style type="text/css">
	.st0{fill:#05A3BA;}
</style>
<path class="st0" d="M463.64,76.35H259.19l-4.22,3.49h208.67c4.74,0,8.59,3.85,8.59,8.59v245.12c0,4.74-3.85,8.59-8.59,8.59H12.08
	c-4.74,0-8.59-3.85-8.59-8.59V88.42c0-4.74,3.85-8.59,8.59-8.59h154.58l4.21-3.49H12.08C5.41,76.34,0,81.75,0,88.42v245.12
	c0,6.68,5.41,12.08,12.08,12.08h451.55c6.67,0,12.08-5.4,12.08-12.08V88.42C475.71,81.76,470.3,76.35,463.64,76.35z"/>
<path class="st0" d="M456.72,326.88h-16.08c-5.08,0-9.22-4.14-9.22-9.22V104.31c0-5.08,4.14-9.22,9.22-9.22h16.08
	c5.08,0,9.22,4.14,9.22,9.22v213.35C465.94,322.74,461.8,326.88,456.72,326.88z M440.64,98.09c-3.43,0-6.22,2.79-6.22,6.22v213.35
	c0,3.43,2.79,6.22,6.22,6.22h16.08c3.43,0,6.22-2.79,6.22-6.22V104.31c0-3.43-2.79-6.22-6.22-6.22H440.64z"/>
<g id="Pem">
	<path class="st0" d="M48.43,221.16c-2.08,0-4.03-0.91-5.41-2.57c-1.68-2.03-2.09-4.7-1.11-7.14l14.94-37.11
		c0.94-2.33,2.99-3.96,5.48-4.34c2.49-0.38,4.93,0.54,6.53,2.48v0l24.31,29.4c1.6,1.94,2.06,4.51,1.21,6.88
		c-0.85,2.37-2.83,4.08-5.3,4.56l-39.25,7.71C49.37,221.11,48.9,221.16,48.43,221.16z M63.44,172.91c-0.21,0-0.42,0.02-0.64,0.05
		c-1.43,0.22-2.61,1.16-3.16,2.5L44.7,212.57c-0.57,1.41-0.33,2.94,0.64,4.11c0.97,1.17,2.43,1.69,3.92,1.4l39.25-7.71
		c1.42-0.28,2.56-1.26,3.05-2.62c0.49-1.36,0.23-2.84-0.69-3.96l-24.31-29.4v0C65.77,173.44,64.64,172.91,63.44,172.91z"/>
	<path class="st0" d="M101.8,201.38c-2.46,0-4.9-1.05-6.59-3.08l-22.46-27.16c-2.99-3.62-2.48-9.01,1.14-12.01L263.93,1.96
		c1.75-1.45,3.97-2.14,6.24-1.92s4.32,1.3,5.77,3.05l0,0l22.46,27.16c2.99,3.62,2.48,9.01-1.14,12.01L107.23,199.43
		C105.64,200.74,103.72,201.38,101.8,201.38z M269.36,3c-1.28,0-2.51,0.44-3.51,1.27L75.81,161.43c-2.35,1.95-2.68,5.44-0.74,7.79
		l22.46,27.16c1.95,2.35,5.44,2.68,7.79,0.74L295.35,39.95c2.35-1.95,2.68-5.44,0.74-7.79L273.64,5.01
		c-0.94-1.14-2.27-1.84-3.75-1.98C269.71,3.01,269.54,3,269.36,3z"/>
	<path class="st0" d="M100.56,182.13c-2.46,0-4.9-1.05-6.58-3.09l-2.55-3.08c-2.99-3.63-2.48-9.02,1.14-12.01l33.04-27.33
		c3.64-2.99,9.02-2.48,12.01,1.14l2.55,3.08c1.45,1.75,2.14,3.97,1.92,6.23c-0.21,2.27-1.3,4.32-3.06,5.78L106,180.18
		C104.41,181.49,102.48,182.13,100.56,182.13z M131.05,137.67c-1.24,0-2.49,0.41-3.52,1.26l-33.04,27.33
		c-2.35,1.94-2.68,5.43-0.74,7.79l2.55,3.08c1.94,2.35,5.44,2.68,7.79,0.74l33.04-27.33c1.14-0.95,1.85-2.28,1.99-3.75
		c0.14-1.47-0.3-2.9-1.25-4.04l0,0l-2.55-3.08C134.22,138.35,132.64,137.67,131.05,137.67z"/>
</g>
<g id="Guy">
	<path class="st0" d="M303.26,330.69c-0.83,0-1.5-0.67-1.5-1.5V110.82c0-0.83,0.67-1.5,1.5-1.5s1.5,0.67,1.5,1.5v218.37
		C304.76,330.02,304.09,330.69,303.26,330.69z"/>
	<path class="st0" d="M303.26,152.9c-15.13,0-27.44-12.31-27.44-27.44s12.31-27.44,27.44-27.44c15.13,0,27.44,12.31,27.44,27.44
		S318.39,152.9,303.26,152.9z M303.26,101.02c-13.48,0-24.44,10.96-24.44,24.44s10.96,24.44,24.44,24.44
		c13.48,0,24.44-10.96,24.44-24.44S316.74,101.02,303.26,101.02z"/>
	<path class="st0" d="M303.26,227.28c-18.12,0-32.87-14.75-32.87-32.87c0-18.12,14.75-32.87,32.87-32.87
		c18.12,0,32.87,14.75,32.87,32.87C336.13,212.53,321.38,227.28,303.26,227.28z M303.26,164.54c-16.47,0-29.87,13.4-29.87,29.87
		c0,16.47,13.4,29.87,29.87,29.87c16.47,0,29.87-13.4,29.87-29.87C333.13,177.94,319.73,164.54,303.26,164.54z"/>
	<path class="st0" d="M303.26,305.62c-19.51,0-35.38-15.87-35.38-35.38s15.87-35.38,35.38-35.38s35.38,15.87,35.38,35.38
		S322.77,305.62,303.26,305.62z M303.26,237.86c-17.85,0-32.38,14.53-32.38,32.38s14.53,32.38,32.38,32.38s32.38-14.53,32.38-32.38
		S321.11,237.86,303.26,237.86z"/>
</g>
<path class="st0" d="M97.97,275.16c-18.38,0-33.7-9.86-44.28-28.5C45.77,232.72,43.3,219,43.2,218.43l2.96-0.52
	c0.1,0.54,10.03,54.25,51.81,54.25c21.32,0,41.68-14.91,61.38-29.34c18.36-13.45,35.71-26.15,52.82-26.15
	c19.48,0,39.85,12.84,61.41,26.44c22.4,14.13,45.57,28.73,68.4,28.73c0.13,0,0.25,0,0.38,0c20.71-0.14,37.5-16.45,52.32-30.84
	c12.88-12.51,25.06-24.33,38.21-24.33c0.01,0,0.01,0,0.02,0l0,3c-0.01,0-0.01,0-0.02,0c-11.93,0-23.68,11.41-36.12,23.48
	c-15.22,14.78-32.48,31.54-54.39,31.69c-0.13,0-0.27,0-0.4,0c-23.71,0-47.24-14.84-70-29.2c-21.18-13.36-41.19-25.98-59.81-25.98
	c-16.13,0-33.09,12.42-51.05,25.57C141.04,259.95,120.27,275.16,97.97,275.16z"/>
<g id="Lines">
	<path class="st0" d="M193.87,330.69H12.32c-0.83,0-1.5-0.67-1.5-1.5s0.67-1.5,1.5-1.5h181.55c0.83,0,1.5,0.67,1.5,1.5
		S194.7,330.69,193.87,330.69z"/>
	<path class="st0" d="M173.37,318.55H12.32c-0.83,0-1.5-0.67-1.5-1.5s0.67-1.5,1.5-1.5h161.05c0.83,0,1.5,0.67,1.5,1.5
		S174.2,318.55,173.37,318.55z"/>
	<path class="st0" d="M157.47,305.63H12.32c-0.83,0-1.5-0.67-1.5-1.5s0.67-1.5,1.5-1.5h145.15c0.83,0,1.5,0.67,1.5,1.5
		S158.3,305.63,157.47,305.63z"/>
	<path class="st0" d="M129.45,293.87H12.32c-0.83,0-1.5-0.67-1.5-1.5s0.67-1.5,1.5-1.5h117.13c0.83,0,1.5,0.67,1.5,1.5
		S130.28,293.87,129.45,293.87z"/>
</g>
</svg>
