<?xml version="1.0" encoding="utf-8"?>
<!-- Generator: Adobe Illustrator 25.4.1, SVG Export Plug-In . SVG Version: 6.00 Build 0)  -->
<svg version="1.1" id="Layer_1" xmlns="http://www.w3.org/2000/svg" xmlns:xlink="http://www.w3.org/1999/xlink" x="0px" y="0px"
	 viewBox="0 0 450 450" style="enable-background:new 0 0 450 450;" xml:space="preserve">
<style type="text/css">
	.st0{display:none;}
	.st1{display:inline;fill:#05A3BA;}
	.st2{fill:#05A3BA;}
	.st3{fill:none;stroke:#05A3BA;stroke-width:3;stroke-miterlimit:10;}
	.st4{fill:none;stroke:#05A3BA;stroke-width:3;stroke-linecap:round;stroke-miterlimit:10;}
</style>
<g class="st0">
	<path class="st1" d="M462.9,118.6c4.1,0,7.4,3.3,7.4,7.4v210.7c0,4.1-3.3,7.4-7.4,7.4H74.8c-4.1,0-7.4-3.3-7.4-7.4V126
		c0-4.1,3.3-7.4,7.4-7.4H462.9 M462.9,115.6H74.8c-5.7,0-10.4,4.6-10.4,10.4v210.7c0,5.7,4.6,10.4,10.4,10.4h388.1
		c5.7,0,10.4-4.6,10.4-10.4V126C473.3,120.3,468.6,115.6,462.9,115.6L462.9,115.6z"/>
</g>
<path class="st2" d="M429.1,120.4H245.7l-3.8,3.1h187.2c4.2,0,7.7,3.5,7.7,7.7v219.9c0,4.2-3.5,7.7-7.7,7.7H24
	c-4.2,0-7.7-3.5-7.7-7.7V131.2c0-4.2,3.5-7.7,7.7-7.7h138.7l3.8-3.1H24c-6,0-10.8,4.9-10.8,10.8v219.9c0,6,4.9,10.8,10.8,10.8h405.1
	c6,0,10.8-4.8,10.8-10.8V131.2C439.9,125.2,435.1,120.4,429.1,120.4z"/>
<path class="st3" d="M422.1,343.8h-12.8c-4.3,0-7.7-3.5-7.7-7.7V146.3c0-4.3,3.5-7.7,7.7-7.7h12.8c4.3,0,7.7,3.5,7.7,7.7v189.8
	C429.8,340.4,426.4,343.8,422.1,343.8z"/>
<g id="Pem">
	<path class="st3" d="M73.9,207.5l21.8,26.4c2.4,2.9,0.8,7.4-2.9,8.1l-35.2,6.9c-3.9,0.8-7.1-3.1-5.6-6.8l13.4-33.3
		C66.8,205.3,71.5,204.6,73.9,207.5z"/>
	<path class="st3" d="M260.1,56.1l19.2,23.3c2.5,3,2.1,7.4-0.9,9.9L109,229.3c-3,2.5-7.4,2.1-9.9-0.9l-19.2-23.3
		c-2.5-3-2.1-7.4,0.9-9.9L250.2,55.1C253.2,52.7,257.7,53.1,260.1,56.1z"/>
	<path class="st3" d="M137.4,178.6l-1.4-1.7c-2.5-3-6.9-3.4-9.9-0.9l-28.5,23.6c-3,2.5-3.4,6.9-0.9,9.9l1.4,1.7
		c2.5,3,6.9,3.4,9.9,0.9l28.5-23.6C139.5,186,139.9,181.5,137.4,178.6z"/>
</g>
<g id="Guy">
	<line class="st4" x1="285.2" y1="151.3" x2="285.2" y2="347.2"/>
	<circle class="st3" cx="285.2" cy="164.4" r="23.3"/>
	<circle class="st3" cx="285.2" cy="226.3" r="28.1"/>
	<circle class="st3" cx="285.2" cy="294.3" r="30.4"/>
</g>
<path class="st3" d="M53.2,247.6c0,0,8.7,49.8,47.8,49.8c37.4,0,71.2-49.8,102.5-49.8c35.5,0,76.3,49.8,116.8,49.5
	c35.2-0.2,56.6-49.5,81.2-49.5"/>
<g id="Lines">
	<line class="st4" x1="24.2" y1="347.2" x2="187.1" y2="347.2"/>
	<line class="st4" x1="24.2" y1="336.3" x2="168.7" y2="336.3"/>
	<line class="st4" x1="24.2" y1="324.7" x2="154.4" y2="324.7"/>
	<line class="st4" x1="24.2" y1="314.2" x2="129.3" y2="314.2"/>
</g>
<g>
</g>
<g>
</g>
<g>
</g>
<g>
</g>
<g>
</g>
<g>
</g>
</svg>
