<svg id="Layer_1" data-name="Layer 1" xmlns="http://www.w3.org/2000/svg" viewBox="0 0 475.71 345.62">
  <defs>
    <style>
      .cls-1 {
        fill: #05a3ba;
      }

      .cls-2, .cls-3 {
        fill: none;
        stroke: #05a3ba;
        stroke-miterlimit: 10;
        stroke-width: 3px;
      }

      .cls-3 {
        stroke-linecap: round;
      }
    </style>
  </defs>
  <path class="cls-1" d="M476.78,142.7H272.33l-4.22,3.49H476.78a8.59,8.59,0,0,1,8.58,8.58V399.89a8.59,8.59,0,0,1-8.58,8.59H25.22a8.59,8.59,0,0,1-8.58-8.59V154.77a8.59,8.59,0,0,1,8.58-8.58H179.8L184,142.7H25.22a12.08,12.08,0,0,0-12.07,12.07V399.89A12.07,12.07,0,0,0,25.22,412H476.78a12.07,12.07,0,0,0,12.07-12.08V154.77A12.08,12.08,0,0,0,476.78,142.7Z" transform="translate(-13.15 -66.35)"/>
  <rect class="cls-2" x="432.91" y="96.58" width="31.52" height="228.79" rx="7.72"/>
  <g id="Pem">
    <path class="cls-2" d="M80.85,239.78l24.31,29.4a5.57,5.57,0,0,1-3.21,9l-39.26,7.71a5.58,5.58,0,0,1-6.24-7.55l14.94-37.11A5.58,5.58,0,0,1,80.85,239.78Z" transform="translate(-13.15 -66.35)"/>
    <rect class="cls-2" x="174.07" y="36.71" width="49.31" height="260.67" rx="7.03" transform="translate(183.5 360.3) rotate(-129.59)"/>
    <rect class="cls-2" x="119.92" y="196.29" width="18.06" height="56.94" rx="7.03" transform="translate(206.82 -84.21) rotate(50.41)"/>
  </g>
  <g id="Guy">
    <line class="cls-3" x1="303.26" y1="110.82" x2="303.26" y2="329.18"/>
    <circle class="cls-2" cx="303.26" cy="125.46" r="25.94"/>
    <circle class="cls-2" cx="303.26" cy="194.4" r="31.37"/>
    <circle class="cls-2" cx="303.26" cy="270.24" r="33.88"/>
  </g>
  <path class="cls-2" d="M57.82,284.52S67.55,340,111.11,340c41.73,0,79.38-55.48,114.2-55.48,39.53,0,85,55.48,130.2,55.17,39.22-.27,63.07-55.2,90.55-55.17" transform="translate(-13.15 -66.35)"/>
  <g id="Lines">
    <line class="cls-3" x1="12.31" y1="329.18" x2="193.86" y2="329.18"/>
    <line class="cls-3" x1="12.31" y1="317.05" x2="173.37" y2="317.05"/>
    <line class="cls-3" x1="12.31" y1="304.12" x2="157.47" y2="304.12"/>
    <line class="cls-3" x1="12.31" y1="292.37" x2="129.44" y2="292.37"/>
  </g>
</svg>
