<svg xmlns="http://www.w3.org/2000/svg" width="1463.77" height="927.2" viewBox="0 0 1463.77 927.2">
  <defs>
    <style>
      .a, .c {
        fill: none;
        stroke-miterlimit: 10;
        stroke-width: 5px;
      }

      .a {
        stroke: #0d0d0d;
      }

      .b {
        fill: #00a3b9;
      }

      .c {
        stroke: #00a3b9;
      }
    </style>
  </defs>
  <line class="a" x1="1439.64" y1="785.69" x2="140.6" y2="35.69"/>
  <line class="a" x1="24.13" y1="752.17" x2="1323.16" y2="2.17"/>
  <polygon id="grid-block-1" class="b" points="702.85 226.72 702.85 226.32 702.51 226.52 649.38 257.19 649.38 437.51 702.53 468.2 702.85 468.38 702.85 468.01 753.16 438.96 753.16 255.76 702.85 226.72"/>
  <line class="a" x1="70.93" y1="798.97" x2="1369.96" y2="48.97"/>
  <polygon id="grid-block-2" class="b" points="765.74 430.94 765.74 430.55 765.4 430.74 712.27 461.42 712.27 475.32 765.42 506.01 765.74 506.19 765.74 505.82 816.05 476.77 816.05 459.99 765.74 430.94"/>
  <line class="a" x1="1392.84" y1="832.49" x2="93.8" y2="82.49"/>
  <polygon id="grid-block-3" class="b" points="638.47 521.2 638.47 520.8 638.13 521 585 551.67 585 606.34 638.15 637.02 638.47 637.21 638.47 636.84 688.78 607.79 688.78 550.24 638.47 521.2"/>
  <line class="a" x1="117.49" y1="845.53" x2="1416.53" y2="95.53"/>
  <line class="a" x1="163.48" y1="891.52" x2="1462.52" y2="141.52"/>
  <line class="a" x1="1300.29" y1="925.04" x2="1.25" y2="175.04"/>
  <line class="c" x1="1346.27" y1="879.05" x2="47.23" y2="129.05"/>
</svg>
