<svg xmlns="http://www.w3.org/2000/svg" viewBox="0 0 474.34 415.4"><defs><style>.a,.b{fill:none;stroke:#05a3ba;stroke-miterlimit:10;}.a{stroke-width:3px;}.b{stroke-width:1.5px;}.c{fill:#05a3ba;}</style></defs><path class="a" d="M236.28,50.83,16.48,431.54A15.84,15.84,0,0,0,30.2,455.31H469.8a15.84,15.84,0,0,0,13.72-23.77L263.72,50.83A15.84,15.84,0,0,0,236.28,50.83Z" transform="translate(-12.83 -41.41)"/><path class="b" d="M236.28,143.28l-139.74,242a15.84,15.84,0,0,0,13.72,23.76H389.74a15.84,15.84,0,0,0,13.72-23.76l-139.74-242A15.84,15.84,0,0,0,236.28,143.28Z" transform="translate(-12.83 -41.41)"/><path class="b" d="M406.75,367l-35.45,61.4a9.1,9.1,0,0,0,7.88,13.66h70.9A9.11,9.11,0,0,0,458,428.41L422.52,367A9.1,9.1,0,0,0,406.75,367Z" transform="translate(-12.83 -41.41)"/><path class="b" d="M244.85,78.12l-21.22,36.74a6,6,0,0,0,5.15,8.93h42.44a6,6,0,0,0,5.15-8.93L255.15,78.12A5.94,5.94,0,0,0,244.85,78.12Z" transform="translate(-12.83 -41.41)"/><path class="b" d="M63.76,392.87,42.55,429.61a6,6,0,0,0,5.15,8.93H90.13a6,6,0,0,0,5.15-8.93L74.06,392.87A5.94,5.94,0,0,0,63.76,392.87Z" transform="translate(-12.83 -41.41)"/><polygon class="c" points="249.42 148.91 237.17 332.11 224.92 148.91 249.42 148.91"/><circle class="c" cx="237.17" cy="322.22" r="16.46"/></svg>