<?xml version="1.0" encoding="utf-8"?>
<!-- Generator: Adobe Illustrator 25.4.1, SVG Export Plug-In . SVG Version: 6.00 Build 0)  -->
<svg version="1.1" id="Ebene_1" xmlns="http://www.w3.org/2000/svg" xmlns:xlink="http://www.w3.org/1999/xlink" x="0px" y="0px"
	 viewBox="0 0 450 450" style="enable-background:new 0 0 450 450;" xml:space="preserve">
<style type="text/css">
	.st0{fill:#00A3B9;}
	.st1{fill:#00A3B9;stroke:#181818;stroke-width:3;stroke-miterlimit:10;}
	.st2{display:none;fill:#00A3B9;stroke:#181818;stroke-width:2;stroke-miterlimit:10;}
	.st3{fill:#00A3B9;stroke:#181818;stroke-width:2;stroke-miterlimit:10;}
	.st4{fill:#00A3B9;stroke:#181818;stroke-miterlimit:10;}
	.st5{display:none;fill:#00A3B9;}
	.st6{fill:#181818;stroke:#00A3B9;stroke-width:3;stroke-linecap:round;stroke-miterlimit:10;}
	.st7{fill:none;stroke:#00A3B9;stroke-miterlimit:10;}
	.st8{fill:none;stroke:#00A3B9;stroke-width:3;stroke-miterlimit:10;}
	.st9{fill:none;stroke:#00A3B9;stroke-width:3;stroke-linecap:round;stroke-linejoin:round;stroke-miterlimit:10;}
</style>
<g id="Controller_1_">
	<path id="ButtonR" class="st0" d="M120.8,145.7c0,0,15.3-13.9,42-12c0.3,0,5.2,10.7,5.2,10.7l-46.3,11.3L120.8,145.7z"/>
	<path id="ButtonL_1_" class="st0" d="M329.2,145.7c0,0-15.3-13.9-42-12c-0.3,0-5.2,10.7-5.2,10.7l46.3,11.3L329.2,145.7z"/>
	<path id="Controller" class="st1" d="M331.7,154.2c-20.8-21.5-48.3-13.2-48.1-13.4c-16.6,12-22,14.6-33.3,16.2
		c-11.8,0-25.3,0.9-25.3,0.9s-13.5-0.9-25.3-0.9c-11.3-1.6-16.6-4.2-33.3-16.2c0.2,0.2-27.3-8.1-48.1,13.4
		c-16.4,9.9-65.9,152.8-22.4,184.2c18.3,15.5,58.7-41.6,73.7-54.1c-0.9-1.2,27.6-9.6,55.4-9.2c27.7-0.4,56.3,8.1,55.4,9.2
		c15,12.5,55.4,69.6,73.7,54.1C397.6,307,348.1,164.2,331.7,154.2z"/>
	<g id="Buttons">
		<path id="BG_1_" class="st2" d="M331.2,192.8c0-7.6-6.1-13.7-13.7-13.7c0-7.6-6.1-13.7-13.7-13.7c-7.6,0-13.7,6.1-13.7,13.7
			c-7.6,0-13.7,6.1-13.7,13.7c0,7.6,6.1,13.7,13.7,13.7c0,7.6,6.1,13.7,13.7,13.7c7.6,0,13.7-6.1,13.7-13.7
			C325,206.5,331.2,200.4,331.2,192.8z"/>
		<circle class="st3" cx="288.8" cy="192.8" r="7.5"/>
		<circle class="st3" cx="318.8" cy="192.8" r="7.5"/>
		<circle class="st3" cx="303.8" cy="177.8" r="7.5"/>
		<circle class="st3" cx="303.8" cy="207.9" r="7.5"/>
	</g>
	<g id="Button">
		<circle class="st3" cx="260.9" cy="235.9" r="23.2"/>
		<circle class="st4" cx="260.9" cy="235.9" r="15.7"/>
	</g>
	<g id="Button_1_">
		<circle class="st3" cx="150.7" cy="196.7" r="22.3"/>
		<circle class="st4" cx="150.7" cy="196.7" r="15.1"/>
	</g>
	<g id="Button_2_">
		<circle class="st4" cx="225" cy="185.3" r="4"/>
	</g>
	<path id="ControllerHalf" class="st5" d="M225,157.9c0,0-13.5-0.9-25.3-0.9c-11.3-1.6-16.6-4.2-33.3-16.2
		c0.2,0.2-27.3-8.1-48.1,13.4c-16.4,9.9-65.9,152.8-22.4,184.2c18.3,15.5,58.7-41.6,73.7-54.1c-0.9-1.2,27.6-9.6,55.4-9.2
		C225,275.4,225,157.9,225,157.9z"/>
	
		<image style="display:none;overflow:visible;" width="1300" height="975" xlink:href="40ECA797.jpg"  transform="matrix(0.2569 0 0 0.2569 58.2348 111.7857)">
	</image>
</g>
<g id="Code">
	<line class="st6" x1="51.3" y1="31.3" x2="122.1" y2="31.3"/>
	<line class="st6" x1="58.7" y1="37.1" x2="137.7" y2="37.1"/>
	<line class="st6" x1="58.7" y1="42.9" x2="129.1" y2="42.9"/>
	<line class="st6" x1="58.7" y1="48.7" x2="136.6" y2="48.7"/>
	<line class="st6" x1="51.3" y1="54.5" x2="120.7" y2="54.5"/>
	<line class="st6" x1="51.3" y1="60.3" x2="140.6" y2="60.3"/>
	<line class="st6" x1="58.7" y1="66.1" x2="137.7" y2="66.1"/>
	<line class="st6" x1="58.7" y1="71.9" x2="136.6" y2="71.9"/>
	<line class="st6" x1="51.3" y1="77.7" x2="127.5" y2="77.7"/>
	<line class="st6" x1="58.7" y1="83.5" x2="135.2" y2="83.5"/>
	<line class="st6" x1="51.3" y1="89.3" x2="132.5" y2="89.3"/>
</g>
<g id="CubeUnwrap">
	<rect x="352.7" y="55.7" class="st0" width="16" height="16"/>
	
		<rect x="371.3" y="55.7" transform="matrix(-1.836970e-16 1 -1 -1.836970e-16 442.9561 -315.5934)" class="st0" width="16" height="16"/>
	
		<rect x="334.1" y="55.7" transform="matrix(-1.836970e-16 1 -1 -1.836970e-16 405.7692 -278.4066)" class="st0" width="16" height="16"/>
	
		<rect x="371.3" y="37.1" transform="matrix(-1.836970e-16 1 -1 -1.836970e-16 424.3626 -334.1868)" class="st0" width="16" height="16"/>
	<rect x="352.7" y="37.1" class="st0" width="16" height="16"/>
	<rect x="352.7" y="74.3" class="st0" width="16" height="16"/>
</g>
<g id="Scence">
	<path class="st0" d="M261.7,396.2l12.3-12.3c1.1-1.1,2.8-1.1,3.9,0l11.4,11.4c1.1,1.1,2.8,1.1,3.9,0l18.7-18.7
		c1.1-1.1,2.8-1.1,3.9,0l13.3,13.3c1.1,1.1,2.8,1.1,3.9,0l5.3-5.3c1.1-1.1,2.8-1.1,3.9,0l11.9,11.9c1.7,1.7,0.5,4.7-1.9,4.7
		l-88.3-0.2C261.2,400.8,260,397.9,261.7,396.2z"/>
	<path class="st7" d="M351.4,401h-87.3c-1.8,0-3.2-1.4-3.2-3.2V377c0-1.8,1.4-3.2,3.2-3.2h87.3c1.8,0,3.2,1.4,3.2,3.2v20.8
		C354.6,399.6,353.2,401,351.4,401z"/>
</g>
<g id="Material">
	<ellipse class="st8" cx="120.1" cy="402" rx="30.6" ry="29.9"/>
	<ellipse class="st0" cx="106.7" cy="388.1" rx="4.9" ry="4.8"/>
</g>
<polyline class="st9" points="159.3,66.1 180.3,66.1 196.7,82.5 196.7,144.6 "/>
<polyline class="st9" points="342.1,83.5 318.8,83.5 306.4,96 306.4,110.7 299.9,117.1 267.3,117.1 257.5,126.9 257.5,144.6 "/>
<polyline class="st9" points="148.6,372.1 167.6,353.1 167.6,298.2 "/>
<polyline class="st9" points="264.2,365 251.7,352.6 251.7,298.2 "/>
<g>
</g>
<g>
</g>
<g>
</g>
<g>
</g>
<g>
</g>
<g>
</g>
</svg>
