<?xml version="1.0" encoding="utf-8"?>
<!-- Generator: Adobe Illustrator 25.4.1, SVG Export Plug-In . SVG Version: 6.00 Build 0)  -->
<svg version="1.1" id="Ebene_1" xmlns="http://www.w3.org/2000/svg" xmlns:xlink="http://www.w3.org/1999/xlink" x="0px" y="0px"
	 viewBox="0 0 450 450" style="enable-background:new 0 0 450 450;" xml:space="preserve">
<style type="text/css">
	.st0{display:none;fill:#181818;}
	.st1{fill:none;stroke:#00A3B9;stroke-width:5;stroke-miterlimit:10;}
	.st2{fill:#181818;stroke:#00A3B9;stroke-width:3;stroke-linecap:round;stroke-miterlimit:10;}
	.st3{fill:#00A3B9;}
	.st4{fill:none;stroke:#00A3B9;stroke-width:0.75;stroke-miterlimit:10;}
	.st5{fill:none;stroke:#00A3B9;stroke-miterlimit:10;}
	.st6{fill:none;stroke:#00A3B9;stroke-width:3;stroke-linecap:round;stroke-miterlimit:10;}
	.st7{fill:none;stroke:#00A3B9;stroke-width:3;stroke-linecap:round;stroke-linejoin:round;stroke-miterlimit:10;}
</style>
<rect id="BG" x="0.3" y="0.3" class="st0" width="449.7" height="449.7"/>
<path class="st1" d="M103.7,173.6h243c8.8,0,15.9,7.1,15.9,15.9v159.8c0,8.8-7.1,15.9-15.9,15.9h-243c-8.8,0-15.9-7.1-15.9-15.9
	V189.6C87.8,180.8,94.9,173.6,103.7,173.6z"/>
<g id="Code">
	<line class="st2" x1="98.1" y1="218.9" x2="215.8" y2="218.9"/>
	<line class="st2" x1="110.4" y1="229.5" x2="241.7" y2="229.5"/>
	<line class="st2" x1="110.4" y1="240.1" x2="227.5" y2="240.1"/>
	<line class="st2" x1="110.4" y1="250.7" x2="239.9" y2="250.7"/>
	<line class="st2" x1="98.1" y1="261.3" x2="213.4" y2="261.3"/>
	<line class="st2" x1="98.1" y1="271.9" x2="246.5" y2="271.9"/>
	<line class="st2" x1="110.4" y1="282.5" x2="241.7" y2="282.5"/>
	<line class="st2" x1="110.4" y1="293.1" x2="239.9" y2="293.1"/>
	<line class="st2" x1="98.1" y1="303.7" x2="224.8" y2="303.7"/>
	<line class="st2" x1="110.4" y1="314.3" x2="237.5" y2="314.3"/>
	<line class="st2" x1="98.1" y1="324.9" x2="233.1" y2="324.9"/>
</g>
<path class="st3" d="M339.9,324.9h-68.5c-5.2,0-9.4-4.2-9.4-9.4v-87.1c0-5.2,4.2-9.4,9.4-9.4h68.5c5.2,0,9.4,4.2,9.4,9.4v87.1
	C349.3,320.7,345.1,324.9,339.9,324.9z"/>
<rect x="87.8" y="182.4" class="st3" width="274.8" height="13.7"/>
<path class="st4" d="M291.5,60.2h103.3c8.8,0,15.9,7.1,15.9,15.9v62.4c0,8.8-7.1,15.9-15.9,15.9H291.5c-8.8,0-15.9-7.1-15.9-15.9
	V76.1C275.6,67.3,282.7,60.2,291.5,60.2z"/>
<g id="Code_2_">
	<line class="st2" x1="280.7" y1="82.4" x2="338.6" y2="82.4"/>
	<line class="st2" x1="286.7" y1="87.6" x2="351.3" y2="87.6"/>
	<line class="st2" x1="286.7" y1="92.8" x2="344.3" y2="92.8"/>
	<line class="st2" x1="286.7" y1="98.1" x2="350.4" y2="98.1"/>
	<line class="st2" x1="280.7" y1="103.3" x2="337.4" y2="103.3"/>
	<line class="st2" x1="280.7" y1="108.5" x2="353.7" y2="108.5"/>
	<line class="st2" x1="286.7" y1="113.7" x2="351.3" y2="113.7"/>
	<line class="st2" x1="286.7" y1="118.9" x2="350.4" y2="118.9"/>
	<line class="st2" x1="280.7" y1="124.1" x2="343" y2="124.1"/>
	<line class="st2" x1="286.7" y1="129.3" x2="349.2" y2="129.3"/>
	<line class="st2" x1="280.7" y1="134.5" x2="347.1" y2="134.5"/>
</g>
<path class="st5" d="M394.8,134.5h-24.1c-5.2,0-9.4-4.2-9.4-9.4V91.8c0-5.2,4.2-9.4,9.4-9.4h24.1c5.2,0,9.4,4.2,9.4,9.4v33.3
	C404.2,130.3,400,134.5,394.8,134.5z"/>
<polyline class="st6" points="46,56.3 24.9,71.6 46,86.8 "/>
<polyline class="st6" points="63.6,56.3 84.7,71.6 63.6,86.8 "/>
<polyline class="st6" points="46,128.1 24.9,143.3 46,158.6 "/>
<polyline class="st6" points="63.6,128.1 84.7,143.3 63.6,158.6 "/>
<line class="st6" x1="46" y1="151.7" x2="63.6" y2="135.3"/>
<g id="Code_1_">
	<line class="st2" x1="71.7" y1="93.9" x2="145.8" y2="93.9"/>
	<line class="st2" x1="79.4" y1="100.6" x2="162.1" y2="100.6"/>
	<line class="st2" x1="79.4" y1="107.3" x2="153.1" y2="107.3"/>
	<line class="st2" x1="79.4" y1="114" x2="161" y2="114"/>
	<line class="st2" x1="71.7" y1="120.6" x2="144.3" y2="120.6"/>
	<path class="st2" d="M71.7,127.3"/>
	<path class="st2" d="M79.4,134"/>
	<path class="st2" d="M79.4,140.7"/>
	<path class="st2" d="M71.7,147.3"/>
	<path class="st2" d="M79.4,154"/>
	<path class="st2" d="M71.7,160.7"/>
</g>
<line class="st5" x1="361.3" y1="78.8" x2="361.3" y2="63.1"/>
<line class="st5" x1="358.6" y1="78.8" x2="363.7" y2="78.8"/>
<line class="st5" x1="358.6" y1="63.1" x2="363.7" y2="63.1"/>
<polyline class="st5" points="353.7,141.1 353.7,142.5 353.7,143.9 "/>
<line class="st5" x1="361.1" y1="142.5" x2="353.7" y2="142.5"/>
<line class="st5" x1="361.1" y1="141.1" x2="361.1" y2="143.9"/>
<polyline class="st7" points="174,108.5 184.6,108.5 192.1,115.9 192.1,162.1 "/>
<polyline class="st7" points="262,107.3 246.5,107.3 238.8,115 238.8,162.1 "/>
<g>
</g>
<g>
</g>
<g>
</g>
<g>
</g>
<g>
</g>
<g>
</g>
</svg>
